<?xml version="1.0" encoding="UTF-8"?>
<!-- Generator: Adobe Illustrator 24.2.1, SVG Export Plug-In . SVG Version: 6.00 Build 0)  -->
<svg version="1.1" id="Ebene_1" xmlns="http://www.w3.org/2000/svg" xmlns:xlink="http://www.w3.org/1999/xlink" x="0px" y="0px" viewBox="0 0 815 652.1" style="enable-background:new 0 0 815 652.1;" xml:space="preserve">
<style type="text/css">
	.st0{fill:#BD972F;}
</style>
<path class="st0" d="M408.1,407.8c0.1,0,162.1-68.6,167.3-142.3c0,0,2-173.7,21.3-212.3c-11.1,2.1-22.5,2-33.5-0.4  C537.6,47,458.1-2.9,407.9,0.1C357.8-2.9,278.6,47,253,52.8c-11,2.4-22.4,2.5-33.5,0.4c19.4,38.6,21.3,212.3,21.3,212.3  C246,339.2,408,407.9,408.1,407.8z M266.4,65.8c23.4-5.3,95.8-50.9,141.6-48.1c45.8-2.8,118.5,42.9,141.9,48.1  c10.1,2.2,20.5,2.3,30.6,0.3c-17.7,35.3-19.5,194-19.5,194C556.3,327.5,408,390.3,408,390.3s-148-62.8-152.7-130.1  c0,0-1.8-158.8-19.5-194C245.9,68.1,256.3,68,266.4,65.8L266.4,65.8z"/>
<path class="st0" d="M408,381.2c0,0,140.1-59.6,144.6-123.8c0,0,1.7-150,18.4-183.5c-3.3,0.4-6.6,0.6-9.9,0.6c-6.4,0-12.8-0.6-19-2  c-21.5-4.9-86.8-45.9-130.2-45.9c-1.3,0-2.6,0-3.9,0.1c-1.3-0.1-2.6-0.1-3.9-0.1c-43.4,0-108.4,41.1-129.9,45.9  c-6.3,1.4-12.6,2-19,2c-3.3,0-6.6-0.2-9.9-0.6c16.8,33.6,18.4,183.5,18.4,183.5C268.1,321.6,400.9,378.2,408,381.2z M255.1,76.5  c6.6,0,13.1-0.7,19.5-2.1C282,72.7,294,67.1,309,60c28.1-13.3,66.7-31.5,95-31.5c1.3,0,2.6,0,3.8,0.1h0.2c1.2-0.1,2.5-0.1,3.8-0.1  c28.4,0,67,18.2,95.3,31.5c15.1,7.1,27,12.7,34.5,14.4c6.4,1.4,12.9,2.1,19.5,2.1c2.7,0,5-0.1,6.7-0.2  c-15.4,38.6-17.1,174.3-17.2,181.1c-1,14.1-9.1,29.3-23.9,45.1c-12.1,12.8-28.6,26-49.1,39.2C455.3,355.8,432,368.3,408,379  c-25-10.9-49.1-23.7-72-38.4c-19.8-12.9-35.8-25.9-47.4-38.5c-14.2-15.5-21.9-30.5-22.9-44.7c-0.1-6.7-1.8-142.5-17.2-181.1  C250.2,76.4,252.4,76.5,255.1,76.5z"/>
<path class="st0" d="M57.7,480.9c-5.2-2-11.6-3.1-19.1-3.1c-1.6,0-4.4,0-8.5,0.1S22.3,478,19,478c-8.5,0-14.8-0.1-19-0.4v2.5  c2,0,4.1,0.4,6,1c1.3,0.5,2.2,1.6,2.6,2.9c0.6,2.2,0.8,4.5,0.7,6.8v62c0.1,2.3-0.1,4.6-0.7,6.8c-0.4,1.3-1.3,2.4-2.6,2.9  c-1.9,0.7-4,1-6,1v2.5c10.7-0.2,17.3-0.4,19.7-0.4c5,0,12.6,0.1,22.9,0.4v-2.8c-2.9,0.1-5.8-0.2-8.6-0.8c-1.7-0.4-3-1.5-3.8-3.1  c-0.7-1.5-1-4-1-7.3v-21.8h6.6c9.2,0,16.5-1.4,22.1-4.2c5.6-2.8,9.5-6.3,11.8-10.6c2.3-4,3.5-8.6,3.5-13.2c0.1-4.6-1.3-9.1-3.9-12.9  C66.7,485.8,62.9,482.9,57.7,480.9z M48.6,521.4c-2.6,4.3-7.2,6.5-14,6.5h-5.4v-37c-0.1-2.3,0.1-4.5,0.6-6.7  c0.3-1.3,1.1-2.4,2.2-3.1c1.6-0.7,3.3-1,5-0.9c5.5,0,9.5,1.9,11.9,5.7s3.6,9.8,3.6,17.9C52.5,511.1,51.2,517,48.6,521.4L48.6,521.4z  "/>
<path class="st0" d="M152.3,556.2c3.4-5.7,5.1-14.6,5.1-26.5v-33.1c-0.1-3.2,0.2-6.4,0.7-9.6c0.3-1.8,1.2-3.5,2.6-4.8  c1.8-1.2,3.8-2,6-2.1v-2.5c-2.6,0.3-6.2,0.4-10.9,0.4c-5.9,0-10.4-0.1-13.5-0.4v2.5c3.6,0.4,6.2,1.1,7.9,2.1c1.8,1.2,3,3,3.4,5.1  c0.7,3.5,1,7.2,0.9,10.8v33c0,10.3-1.7,18.3-5.2,23.9c-3.4,5.6-9.3,8.4-17.6,8.4c-4.4,0-7.8-0.9-10.3-2.8c-2.7-2.1-4.5-5.1-5.3-8.4  c-1.2-4.7-1.7-9.5-1.6-14.3v-47.1c-0.1-2.3,0.2-4.6,0.8-6.8c0.4-1.4,1.5-2.4,2.8-2.9c2.1-0.7,4.3-1,6.6-1v-2.5  c-4.7,0.3-11.3,0.4-19.9,0.4c-8.6,0-15.1-0.1-19.4-0.4v2.5c2.1,0,4.1,0.3,6.1,1c1.3,0.5,2.2,1.6,2.6,2.9c0.6,2.2,0.8,4.5,0.7,6.8  v39.2c-0.1,4.8,0.2,9.5,0.8,14.2c0.4,3.4,1.4,6.7,2.9,9.8c1.5,2.9,3.5,5.4,6.1,7.4c5.4,4.2,12.9,6.3,22.5,6.3c6.2,0,11.4-1,15.6-3  C146.6,563,150,560,152.3,556.2z"/>
<path class="st0" d="M194.9,483.1c3.1-1.8,6.6-2.7,10.2-2.6h2.7v71.4c0,3.5-0.3,6-1,7.6c-0.7,1.6-2.1,2.8-3.8,3.2  c-2.8,0.7-5.7,1-8.6,0.9v2.5c10-0.2,17.6-0.4,22.9-0.4s13.2,0.1,23.7,0.4v-2.5c-2.9,0.1-5.7-0.2-8.5-0.9c-1.7-0.5-3.1-1.6-3.8-3.2  c-0.7-1.6-1.1-4.1-1.1-7.6v-71.4h2.9c3.6-0.1,7.1,0.8,10.2,2.7c2.8,1.8,5.2,4.7,7.2,8.7c2.4,5.3,4.1,10.8,5.1,16.5h2.9  c-0.3-3.2-0.5-6.3-0.4-9.5c0-5.7,0.3-12.8,0.9-21.2c-7.5,0.3-20.4,0.4-38.5,0.4c-18.1,0-31-0.1-38.6-0.4c0.6,8.5,0.9,15.5,0.9,21.2  c0,3.2-0.1,6.4-0.4,9.5h2.9c1-5.7,2.7-11.3,5.1-16.6C189.7,487.8,192.1,484.9,194.9,483.1z"/>
<path class="st0" d="M335.4,547.1c0-4.6,0.1-8.3,0.4-11h-2.9c-0.7,6.5-2.3,11.7-5,15.8c-2.3,3.7-5.6,6.7-9.5,8.7  c-3.7,1.8-7.7,2.7-11.8,2.7h-13.8l43.5-83.1v-2.5c-7.3,0.3-19.2,0.4-35.6,0.4c-13.3,0-22.6-0.1-28.1-0.4c0.6,7.6,0.9,13.9,0.9,19  c0,3.2-0.1,6.4-0.4,9.5h2.9c1.1-9.3,3.8-15.9,8.1-19.8c4.3-3.9,9.9-5.9,16.8-5.9h14.3l-43.6,83.1v2.5c6.9-0.2,18.1-0.4,33.6-0.4  c14.6,0,24.9,0.1,31.1,0.4C335.6,559.9,335.3,553.5,335.4,547.1z"/>
<path class="st0" d="M421.7,547.1c0-4.3,0.1-7.8,0.4-10.5h-2.9c-1.5,9.6-4.1,16.4-7.7,20.5c-3.6,4.1-8.8,6.3-14.2,6.1h-6.2  c-1.9,0.1-3.8-0.1-5.6-0.6c-1.1-0.4-2-1.3-2.4-2.4c-0.5-1.9-0.7-3.9-0.6-5.8v-31.5h4c8.5,0,13.6,5.5,15.3,16.5h2.9  c-0.5-7.6-0.7-13.5-0.7-17.8l-0.1-6c0-3.7,0.1-7.7,0.4-11.8h-2.9c-0.8,4.2-2.4,8.1-4.8,11.6c-2.3,3.3-5.7,4.9-10.1,4.9h-4v-30.9  c-0.1-2,0.1-3.9,0.6-5.8c0.3-1.1,1.2-2,2.4-2.4c1.8-0.5,3.7-0.7,5.6-0.6h5.1c3.5-0.1,6.9,0.7,9.9,2.3c2.9,1.8,5.2,4.4,6.6,7.5  c1.8,3.5,3.1,8.3,3.9,14.3h2.9c-0.3-2.8-0.4-5.6-0.4-8.5c0-5.4,0.3-11.6,0.8-18.5c-5.2,0.3-13.9,0.4-26.1,0.4  c-18.1,0-31.7-0.1-40.7-0.4v2.5c2,0,4.1,0.3,6,1c1.3,0.5,2.2,1.6,2.6,2.9c0.6,2.2,0.8,4.5,0.7,6.8v62c0.1,2.3-0.1,4.6-0.7,6.8  c-0.4,1.3-1.3,2.4-2.6,2.9c-1.9,0.7-4,1-6,1v2.5c9-0.2,22.6-0.4,40.7-0.4c13.4,0,22.9,0.1,28.6,0.4  C421.9,559.9,421.7,553.5,421.7,547.1z"/>
<path class="st0" d="M464,566.1v-2.5c-3.7-0.4-6.4-1.1-8.1-2.1c-1.7-1.2-2.9-3-3.3-5c-0.6-3.6-0.9-7.2-0.8-10.8v-48l54.2,68.7  c0.8,0,1.9-0.1,3.4-0.1s2.4,0,3,0.1v-69.7c-0.1-3.2,0.1-6.4,0.7-9.6c0.3-1.8,1.2-3.5,2.6-4.8c1.8-1.2,3.8-2,6-2.1v-2.5  c-2.6,0.3-6.2,0.4-10.9,0.4c-5.8,0-10.3-0.1-13.5-0.4v2.5c3.7,0.4,6.4,1.1,8.1,2.1c1.7,1.2,2.9,3,3.3,5c0.6,3.6,0.9,7.2,0.8,10.8  v39.1l-48.4-59.6c-3,0.3-6.6,0.4-10.7,0.4c-4.6,0-8.2-0.1-10.8-0.4v2.5c2,0,4.1,0.4,6,1c1.3,0.5,2.2,1.6,2.6,2.9  c0.6,2.2,0.8,4.5,0.7,6.8v56.2c0.1,3.2-0.2,6.4-0.7,9.6c-0.3,1.8-1.2,3.5-2.6,4.8c-1.8,1.2-3.8,2-6,2.1v2.5  c2.7-0.2,6.3-0.4,10.8-0.4C456.3,565.7,460.8,565.9,464,566.1z"/>
<path class="st0" d="M589.9,477.7v2.5c2.1,0,4.1,0.3,6.1,1c1.3,0.5,2.2,1.6,2.6,2.9c0.6,2.2,0.8,4.5,0.7,6.8v29.5h-33.1v-29.5  c-0.1-2.3,0.1-4.6,0.7-6.8c0.4-1.3,1.3-2.4,2.6-2.9c2-0.7,4-1,6.1-1v-2.5c-4.4,0.3-10.7,0.4-18.8,0.4c-8.9,0-15.5-0.1-19.7-0.4v2.5  c2,0,4.1,0.3,6,1c1.3,0.5,2.2,1.6,2.6,2.9c0.6,2.2,0.8,4.5,0.7,6.8v62c0.1,2.3-0.1,4.6-0.7,6.8c-0.4,1.3-1.3,2.4-2.6,2.9  c-1.9,0.7-4,1-6,1v2.5c4.2-0.2,10.8-0.4,19.7-0.4c8.1,0,14.4,0.1,18.8,0.4v-2.5c-2.1,0-4.1-0.3-6.1-1c-1.3-0.5-2.2-1.6-2.6-2.9  c-0.5-2.2-0.8-4.5-0.7-6.8v-30.1h33.1v30c0.1,2.3-0.1,4.6-0.7,6.8c-0.4,1.3-1.3,2.4-2.6,2.9c-2,0.7-4,1-6.1,1v2.5  c4.6-0.2,11.2-0.4,19.6-0.4s14.8,0.1,19,0.4v-2.5c-2.1,0-4.1-0.3-6.1-1c-1.3-0.5-2.2-1.6-2.6-2.9c-0.6-2.2-0.8-4.5-0.7-6.8v-62  c-0.1-2.3,0.1-4.6,0.7-6.8c0.4-1.3,1.3-2.4,2.6-2.9c2-0.7,4-1,6.1-1v-2.5c-4.2,0.3-10.5,0.4-19,0.4S594.4,477.9,589.9,477.7z"/>
<path class="st0" d="M711.4,481.3c-6.7-3.6-14.4-5.4-23.2-5.4c-8-0.1-16,1.9-22.9,5.9c-6.7,3.9-12.1,9.6-15.7,16.5  c-3.9,7.5-5.8,15.9-5.6,24.4c0,9.4,1.8,17.5,5.5,24.3c3.5,6.6,8.8,12.1,15.4,15.6c6.7,3.6,14.4,5.4,23.2,5.4  c8,0.1,15.9-1.9,22.9-5.9c6.7-3.9,12.2-9.6,15.7-16.5c3.9-7.5,5.8-15.9,5.6-24.4c0-9.4-1.8-17.5-5.5-24.3  C723.5,490.2,718.1,484.8,711.4,481.3z M708.8,544.5c-1.9,6.7-4.6,11.9-8.1,15.6c-3,3.5-7.4,5.6-12.1,5.6c-4.4,0-8.5-1.8-12.1-5.4  s-6.5-8.7-8.6-15.3c-2.2-7.4-3.3-15.1-3.2-22.9c-0.1-7.7,0.8-15.4,2.8-22.8c1.9-6.7,4.6-11.9,8-15.6c3.1-3.5,7.5-5.6,12.2-5.6  c4.4,0,8.4,1.8,12,5.4c3.6,3.6,6.5,8.7,8.7,15.3c2.2,7.4,3.3,15.1,3.2,22.8C711.8,529.4,710.8,537.1,708.8,544.5z"/>
<path class="st0" d="M815,477.7c-5.2,0.3-13.9,0.4-26.1,0.4c-18.1,0-31.7-0.1-40.7-0.4v2.5c2,0,4.1,0.3,6,1c1.3,0.5,2.2,1.6,2.6,2.9  c0.6,2.2,0.8,4.5,0.7,6.8v62c0.1,2.3-0.1,4.6-0.7,6.8c-0.4,1.3-1.3,2.4-2.6,2.9c-1.9,0.7-4,1-6,1v2.5c10.7-0.2,17.3-0.4,19.7-0.4  c5,0,12.6,0.1,22.9,0.4v-2.8c-2.9,0.1-5.8-0.2-8.6-0.8c-1.7-0.4-3-1.5-3.8-3.1c-0.7-1.5-1-4-1-7.3v-28.8h4.3  c8.4,0,13.5,5.5,15.2,16.5h2.9c-0.5-7.5-0.8-13.4-0.8-17.8l-0.1-6c0-3.7,0.1-7.7,0.4-11.8h-2.9c-0.8,4.2-2.4,8.1-4.8,11.6  c-2.3,3.3-5.6,4.9-10.1,4.9h-4.4v-31.5c-0.1-2,0.1-3.9,0.6-5.8c0.4-1.1,1.2-2,2.3-2.4c1.8-0.5,3.7-0.7,5.6-0.6h4.2  c3.5-0.1,7,0.7,10.1,2.4c3,1.9,5.4,4.7,6.9,8c1.9,3.7,3.3,8.8,4.5,15.2h2.9c-0.2-2.4-0.4-5.6-0.4-9.5  C814.1,491.1,814.4,484.8,815,477.7z"/>
<path class="st0" d="M175.8,646.5L162,610.8H161l-13.4,34.4c-1.1,2.9-2.6,4.5-4.5,4.9v1.1c1.1-0.1,2.5-0.2,4.2-0.2  c2.2,0,4.4,0.1,6.6,0.2v-1.2c-1.3,0.1-2.6-0.2-3.7-0.8c-0.8-0.6-1.3-1.6-1.2-2.6c0.1-1.6,0.5-3.2,1.1-4.7l2.3-6h13.7l3.5,9.3  c0.4,0.8,0.6,1.7,0.7,2.7c0.1,0.7-0.3,1.3-0.9,1.6c-1,0.4-2,0.5-3.1,0.5v1.1c1.6-0.1,4-0.2,7.3-0.2c2.5,0,4.5,0.1,6.1,0.2v-1.2  C178,650.1,176.7,648.8,175.8,646.5z M152.9,634.9l6.5-16.9l6.3,16.9L152.9,634.9z"/>
<path class="st0" d="M212.1,612.5c-2.4-1-5-1.5-7.5-1.4c-0.7,0-1.9,0-3.7,0c-1.8,0.1-3.4,0.1-4.9,0.1c-3.1,0-5.4-0.1-6.9-0.2v1.1  c1,0,2,0.1,3,0.4c0.6,0.2,1.1,0.7,1.3,1.3c0.3,1,0.4,2.1,0.4,3.1v28.2c0,1-0.1,2.1-0.4,3.1c-0.2,0.6-0.7,1.1-1.3,1.3  c-1,0.3-2,0.5-3,0.5v1.1c1.6-0.1,4-0.2,7.3-0.2c3.6,0,6.4,0.1,8.3,0.2v-1.1c-1.2,0-2.5-0.2-3.7-0.5c-0.7-0.2-1.3-0.7-1.6-1.3  c-0.4-1-0.5-2-0.5-3.1V635h4.4c3.1,0.1,6.1-0.5,8.8-1.9c2-1.1,3.7-2.7,4.7-4.8c0.9-1.9,1.4-3.9,1.4-6c0-2.1-0.5-4.1-1.5-5.9  C215.7,614.7,214.1,613.3,212.1,612.5z M210.5,630.9c-1.4,2-4,3-7.7,3H199v-16.8c0-1,0.1-2,0.3-3c0.2-0.6,0.6-1.2,1.2-1.4  c0.9-0.3,1.8-0.4,2.7-0.4c1.9-0.1,3.8,0.3,5.5,1.2c1.4,0.8,2.4,2,3,3.5c0.7,1.9,1,4,0.9,6C212.7,625.8,212,628.6,210.5,630.9  L210.5,630.9z"/>
<path class="st0" d="M253.9,612.5c-2.4-1-5-1.5-7.5-1.4c-0.7,0-1.9,0-3.7,0c-1.8,0.1-3.4,0.1-4.9,0.1c-3.1,0-5.4-0.1-6.9-0.2v1.1  c1,0,2,0.1,3,0.4c0.6,0.2,1.1,0.7,1.3,1.3c0.3,1,0.4,2.1,0.4,3.1v28.2c0,1-0.1,2.1-0.4,3.1c-0.2,0.6-0.7,1.1-1.3,1.3  c-1,0.3-2,0.4-3,0.5v1.1c1.6-0.1,4-0.2,7.3-0.2c3.6,0,6.4,0.1,8.4,0.2v-1.1c-1.2,0-2.5-0.2-3.7-0.5c-0.7-0.2-1.3-0.7-1.6-1.3  c-0.4-1-0.5-2-0.4-3.1V635h4.4c3.1,0.1,6.1-0.5,8.8-1.9c2-1.1,3.7-2.7,4.7-4.8c0.9-1.9,1.4-3.9,1.4-6c0-2.1-0.5-4.1-1.5-5.9  C257.4,614.7,255.8,613.3,253.9,612.5z M252.2,630.9c-1.4,2-4,3-7.7,3h-3.8v-16.8c0-1,0.1-2,0.3-3c0.2-0.6,0.6-1.2,1.2-1.4  c0.9-0.3,1.8-0.4,2.7-0.4c1.9-0.1,3.8,0.3,5.5,1.2c1.4,0.8,2.4,2.1,3,3.5c0.7,1.9,1,4,0.9,6C254.5,625.8,253.7,628.6,252.2,630.9z"/>
<path class="st0" d="M300.1,646.5l-13.8-35.7h-0.9L272,645.3c-1.1,2.9-2.6,4.5-4.5,4.9v1.1c1.1-0.1,2.5-0.2,4.2-0.2  c2.2,0,4.4,0.1,6.5,0.2v-1.2c-1.3,0.1-2.6-0.2-3.7-0.8c-0.8-0.6-1.3-1.6-1.2-2.6c0.1-1.6,0.5-3.2,1.1-4.7l2.3-6h13.7l3.5,9.3  c0.4,0.8,0.6,1.7,0.7,2.7c0.1,0.7-0.3,1.3-0.9,1.6c-1,0.4-2,0.5-3.1,0.5v1.1c1.6-0.1,4-0.2,7.3-0.2c2.5,0,4.5,0.1,6.1,0.2v-1.2  C302.3,650.1,301,648.9,300.1,646.5z M277.2,634.9l6.5-16.9l6.4,16.9L277.2,634.9z"/>
<path class="st0" d="M346.1,649.5c-0.4,0.3-1,0.5-1.6,0.5c-0.5,0-0.9-0.2-1.3-0.5c-0.4-0.4-0.7-0.9-0.9-1.5  c-0.3-0.9-0.6-1.8-0.7-2.7l-1.4-5.8c-0.3-1.4-0.8-2.7-1.5-3.9c-0.6-1-1.4-1.8-2.4-2.3c-1.3-0.6-2.7-1.1-4.1-1.3l-0.7-0.1  c2.3-0.3,4.5-1.1,6.5-2.4c1.5-1,2.7-2.4,3.5-4c0.7-1.4,1-2.9,1-4.5c0-1.8-0.5-3.6-1.5-5.1c-1.2-1.6-2.8-2.8-4.6-3.5  c-2.4-0.9-4.9-1.4-7.5-1.3c-0.7,0-1.9,0-3.7,0c-1.8,0.1-3.4,0.1-4.9,0.1c-3,0-5.3-0.1-6.9-0.2v1.1c1,0,2,0.1,3,0.4  c0.6,0.2,1.1,0.7,1.3,1.3c0.3,1,0.4,2.1,0.4,3.1v28.2c0,1-0.1,2.1-0.4,3.1c-0.2,0.6-0.7,1.1-1.3,1.3c-1,0.3-2,0.5-3,0.5v1.1  c1.6-0.1,4-0.2,7.3-0.2c3.1,0,5.5,0.1,7.2,0.2v-1.2c-1,0-2-0.2-3-0.5c-0.6-0.2-1.1-0.7-1.3-1.3c-0.3-1-0.4-2.1-0.3-3.1v-13.1h5.4  c1.2-0.1,2.4,0.3,3.4,1c0.8,0.7,1.4,1.6,1.8,2.5c0.5,1.5,0.9,3,1.3,4.6l1.3,5.7c0.3,1.8,1.1,3.5,2.3,4.8c1.1,0.9,2.4,1.4,3.8,1.4  c1.2,0.1,2.4-0.2,3.4-0.9c1-0.8,1.9-1.7,2.6-2.8l-0.9-0.6C347.1,648.4,346.6,649,346.1,649.5z M327.1,631.1h-3.8v-14  c0-1,0.1-2,0.3-3c0.2-0.6,0.6-1.2,1.2-1.4c0.9-0.3,1.8-0.4,2.7-0.4c3.3,0,5.7,0.8,7.2,2.4s2.2,3.9,2.2,7c0,1.7-0.2,3.4-0.8,4.9  c-0.6,1.4-1.7,2.6-3,3.3C331.2,630.7,329.2,631.2,327.1,631.1L327.1,631.1z"/>
<path class="st0" d="M373.6,611.3c-7.5,0-12.9-0.1-16-0.2c0.3,2.4,0.4,4.8,0.4,7.3c0,1.9-0.1,3.5-0.2,4.7h1.3  c0.2-2.2,0.5-4.4,1.1-6.5c0.4-1.3,1.2-2.4,2.4-3.1c1.6-0.8,3.4-1.1,5.2-1h3.1v32.3c0.1,1.2-0.1,2.3-0.5,3.5  c-0.3,0.7-0.9,1.3-1.6,1.5c-1.2,0.3-2.4,0.5-3.7,0.5v1.1c1.8-0.1,4.6-0.2,8.4-0.2c3.6,0,6.4,0,8.3,0.2v-1.1c-1.2,0-2.5-0.2-3.7-0.5  c-0.7-0.2-1.3-0.8-1.6-1.5c-0.4-1.1-0.5-2.3-0.5-3.5v-32.3h3.1c1.8-0.1,3.6,0.2,5.2,1c1.2,0.7,2,1.8,2.4,3.1c0.6,2.1,1,4.3,1.1,6.5  h1.3c-0.1-1.2-0.2-2.8-0.2-4.7c0-2.1,0.1-4.6,0.4-7.3C386.4,611.2,381.1,611.3,373.6,611.3z"/>
<path class="st0" d="M431.4,639.9h-1.3c-0.2,2.1-0.6,4.1-1.3,6.1c-0.5,1.3-1.4,2.4-2.7,3c-1.7,0.7-3.5,1-5.4,0.9h-4.2  c-1,0-2-0.1-3-0.3c-0.6-0.2-1.1-0.7-1.3-1.3c-0.3-1-0.4-2-0.3-3.1v-13.6h3.8c1.3-0.1,2.6,0.4,3.6,1.2c0.9,1,1.5,2.2,1.5,3.6  c0.2,1.6,0.3,2.5,0.3,2.8h1.3c-0.2-3.5-0.3-6.1-0.3-8.1v-2.7c0-1.7,0.1-3.5,0.2-5.3h-1.3c0,0.3-0.2,1.1-0.3,2.3  c-0.2,1.2-0.6,2.4-1.2,3.5c-0.6,1.1-1.9,1.7-3.8,1.7h-3.8v-13.4c-0.1-1,0.1-2.1,0.3-3.1c0.2-0.6,0.7-1.1,1.3-1.3c1-0.3,2-0.4,3-0.3  h4.7c1.5-0.1,3.1,0.2,4.5,0.8c1,0.6,1.8,1.5,2.1,2.6c0.5,1.8,0.9,3.6,1,5.5h1.3c-0.1-1.2-0.2-2.3-0.2-3.5c0-2.2,0.1-4.5,0.4-6.7  c-2.3,0.1-6.3,0.2-11.9,0.2c-7.3,0-12.8-0.1-16.5-0.2v1.1c1,0,2,0.1,3,0.4c0.6,0.2,1.1,0.7,1.3,1.3c0.3,1,0.4,2.1,0.4,3.1v28.2  c0,1-0.1,2.1-0.4,3.1c-0.2,0.6-0.7,1.1-1.3,1.3c-1,0.3-2,0.5-3,0.4v1.1c3.7-0.1,9.2-0.2,16.5-0.2c6.1,0,10.4,0.1,13,0.2  c-0.3-2.7-0.4-5.1-0.4-7.3C431.2,642.7,431.2,641.3,431.4,639.9z"/>
<path class="st0" d="M480,611.3L467.8,644l-12.5-32.9c-1.2,0.1-2.9,0.2-4.9,0.2c-2.3,0-4-0.1-5.3-0.2v1.1c1,0,2,0.1,3,0.4  c0.6,0.2,1.1,0.7,1.3,1.3c0.3,1,0.4,2.1,0.3,3.1v27.6c0,1.1-0.1,2.2-0.4,3.3c-0.2,0.7-0.7,1.3-1.3,1.6c-0.9,0.4-1.9,0.6-2.9,0.6v1.1  c1.3-0.1,3-0.2,5.3-0.2c2.5,0,4.5,0.1,5.8,0.2v-1.1c-1.1,0-2.2-0.2-3.3-0.6c-0.7-0.3-1.2-0.9-1.5-1.6c-0.3-1.1-0.4-2.2-0.4-3.3v-30  l14.3,36.8h0.9l13.7-36.7v30.4c0,1-0.1,2.1-0.3,3.1c-0.2,0.6-0.7,1.1-1.3,1.3c-1,0.3-2,0.5-3,0.4v1.1c1.6-0.1,4-0.2,7.3-0.2  c3,0,5.4,0,7.2,0.2v-1.1c-1,0-2-0.2-3-0.5c-0.6-0.2-1.1-0.7-1.3-1.3c-0.3-1-0.4-2.1-0.3-3.1v-28.2c0-1,0.1-2.1,0.3-3.1  c0.2-0.6,0.7-1.1,1.3-1.3c1-0.3,2-0.4,3-0.4v-1.1c-1.8,0.1-4.2,0.2-7.2,0.2H480z"/>
<path class="st0" d="M532.4,639.9h-1.3c-0.2,2.1-0.6,4.1-1.3,6.1c-0.5,1.3-1.4,2.4-2.7,3c-1.7,0.7-3.5,1-5.4,0.9h-4.2  c-1,0-2-0.1-3-0.3c-0.6-0.2-1.1-0.7-1.3-1.3c-0.3-1-0.4-2-0.3-3.1v-13.6h3.8c1.3-0.1,2.6,0.4,3.6,1.2c0.9,1,1.5,2.2,1.5,3.6  c0.2,1.6,0.3,2.5,0.3,2.8h1.3c-0.2-3.5-0.3-6.2-0.3-8.1v-2.7c0-1.7,0.1-3.5,0.2-5.3h-1.3c-0.1,0.3-0.2,1.1-0.3,2.3  c-0.2,1.2-0.6,2.4-1.2,3.5c-0.6,1.1-1.9,1.7-3.8,1.7h-3.8v-13.4c-0.1-1,0.1-2.1,0.3-3.1c0.2-0.6,0.7-1.1,1.3-1.3c1-0.3,2-0.4,3-0.3  h4.7c1.5-0.1,3.1,0.2,4.5,0.8c1,0.6,1.8,1.5,2.1,2.6c0.5,1.8,0.9,3.6,1,5.5h1.3c-0.1-1.2-0.2-2.3-0.2-3.5c0-2.2,0.1-4.5,0.4-6.7  c-2.3,0.1-6.3,0.2-11.9,0.2c-7.3,0-12.8-0.1-16.5-0.2v1.1c1,0,2,0.1,3,0.4c0.6,0.2,1.1,0.7,1.3,1.3c0.3,1,0.4,2.1,0.3,3.1v28.2  c0,1-0.1,2.1-0.3,3.1c-0.2,0.6-0.7,1.1-1.3,1.3c-1,0.3-2,0.4-3,0.4v1.1c3.7-0.1,9.2-0.2,16.5-0.2c6.1,0,10.4,0.1,13,0.2  c-0.3-2.7-0.4-5.1-0.4-7.3C532.2,642.7,532.3,641.3,532.4,639.9z"/>
<path class="st0" d="M570.9,611.1v1.1c1.1,0,2.3,0.2,3.3,0.6c0.7,0.3,1.2,0.9,1.5,1.6c0.3,1.1,0.4,2.2,0.4,3.3V642l-20-30.9  c-1.3,0.1-2.7,0.2-4.4,0.2c-2.3,0-4-0.1-5.3-0.2v1.1c1,0,2,0.1,3,0.4c0.6,0.2,1.1,0.7,1.3,1.3c0.3,1,0.4,2.1,0.3,3.1v27.6  c0,1.1-0.1,2.2-0.4,3.3c-0.2,0.7-0.7,1.3-1.3,1.6c-0.9,0.4-1.9,0.6-2.9,0.6v1.1c1.3-0.1,3-0.2,5.3-0.2c2.5,0,4.4,0,5.8,0.2v-1.1  c-1.1,0-2.2-0.2-3.3-0.6c-0.7-0.3-1.2-0.9-1.5-1.6c-0.3-1.1-0.4-2.2-0.4-3.3v-30l23.8,36.8h1.3v-33.8c0-1.1,0.1-2.2,0.4-3.3  c0.2-0.7,0.7-1.3,1.3-1.6c0.9-0.4,1.9-0.6,2.9-0.6v-1.1c-1.3,0.1-3,0.2-5.3,0.2C574.1,611.3,572.2,611.2,570.9,611.1z"/>
<path class="st0" d="M610.2,611.3c-7.5,0-12.9-0.1-16-0.2c0.3,2.4,0.4,4.8,0.4,7.3c0,1.9-0.1,3.5-0.2,4.7h1.3  c0.2-2.2,0.5-4.4,1.1-6.5c0.4-1.3,1.2-2.4,2.4-3.1c1.6-0.8,3.4-1.1,5.2-1h3.1v32.3c0.1,1.2-0.1,2.3-0.4,3.5  c-0.3,0.7-0.9,1.3-1.6,1.5c-1.2,0.3-2.4,0.5-3.7,0.5v1.1c1.8-0.1,4.6-0.2,8.4-0.2c3.6,0,6.3,0.1,8.3,0.2v-1.1  c-1.2,0-2.5-0.2-3.7-0.5c-0.7-0.2-1.3-0.8-1.6-1.5c-0.4-1.1-0.5-2.3-0.5-3.5v-32.3h3.1c1.8-0.1,3.6,0.2,5.2,1c1.2,0.7,2,1.8,2.4,3.1  c0.6,2.1,1,4.3,1.1,6.5h1.3c-0.1-1.2-0.2-2.8-0.2-4.7c0-2.1,0.1-4.6,0.4-7.3C623,611.2,617.6,611.3,610.2,611.3z"/>
<path class="st0" d="M659.6,632.4c-1.8-1.4-3.7-2.7-5.7-3.9l-3.3-2c-1.6-0.9-3-2.1-4.3-3.4c-1.3-1.3-1.9-3.1-1.9-5  c0-1.2,0.3-2.4,0.9-3.4c0.6-1,1.5-1.8,2.5-2.3c1.1-0.6,2.3-0.8,3.6-0.8c1.8-0.1,3.6,0.5,5,1.5c1.3,1,2.4,2.4,3,4  c0.7,1.7,1.1,3.5,1.3,5.4h1.3c0-5.5,0.1-9.4,0.3-11.6H661c-0.1,0.7-0.2,1.3-0.5,1.9c-0.1,0.3-0.4,0.6-0.8,0.6  c-0.7-0.1-1.4-0.4-1.9-0.8c-0.7-0.4-1.3-0.8-1.8-1.1c-0.7-0.3-1.4-0.6-2.1-0.7c-1-0.2-2-0.3-3-0.3c-1.8,0-3.7,0.4-5.3,1.1  c-1.6,0.7-3,1.9-3.9,3.3c-1,1.6-1.5,3.5-1.5,5.4c0,1.8,0.4,3.7,1.3,5.3c0.9,1.5,2,2.8,3.4,3.8c1.7,1.3,3.5,2.5,5.4,3.6  c1.7,1,3.3,2.1,4.9,3.3c1.1,0.9,2.1,2,2.9,3.2c0.7,1.2,1.1,2.5,1.1,3.9c0.1,1.5-0.3,3-1,4.3c-0.6,1.1-1.6,2-2.7,2.5  c-1.1,0.5-2.4,0.8-3.6,0.8c-3.4,0-5.9-1.2-7.5-3.6c-1.8-2.8-2.7-6-2.8-9.3h-1.3c0,7-0.1,11.5-0.2,13.6h1.3c0.1-0.7,0.2-1.3,0.4-1.9  c0.1-0.3,0.4-0.6,0.8-0.6c0.7,0.1,1.4,0.4,1.9,0.8c2.3,1.5,5,2.2,7.8,2.1c2.1,0,4.2-0.4,6.1-1.2c1.8-0.8,3.3-2,4.3-3.7  c1.1-1.8,1.7-3.8,1.6-5.9c0-1.8-0.4-3.5-1.3-5.1C662.1,634.8,661,633.5,659.6,632.4z"/>
<path class="st0" d="M727.5,294.6c7.5-4.8,13.6-4.4,21-0.2c-6.2-7.9-12.8-8.6-21.5-3.4c8.3-5.7,8.9-11.5,2.4-19.5  c2.4,8.1,1.9,12.3-5,17.9c0.3-7.7-3.4-14.7-12.1-13.9c6.8,2.8,11.7,13,7.5,16.2c2.1,1.9,3.6,4.3,4.5,7c6.6-2,12.8,0,13.3,9.5  C740.8,300.1,736.8,293.4,727.5,294.6z"/>
<path class="st0" d="M660.5,234.3c0.9-0.4,1.7-0.8,2.6-1.1c7-1.3,11.9,0.6,15.4,4.6c-0.2-8.4,2.7-9.1,8.2-3.6  c-2.3-6.8-5.8-11.1-12.4-5.6c1.5-7.7,4.6-10.5,11.9-12.2c-9-3.2-12.5,2.5-15.1,10.3c1.5-6.8,2.3-13.8-1.1-17.4  c0.6,5.9-0.6,11.8-3.6,16.9c-1.6-9.9-1.9-13.5-12.1-18.5C668.8,224.2,658.7,224.4,660.5,234.3z"/>
<path class="st0" d="M651.5,287.1c24,13.2,44-15.2,32-40.3c-3.8-9-9.6-15-20.5-13C640.5,242.5,626.5,272.2,651.5,287.1z"/>
<path class="st0" d="M663.5,327.7c11.3,30.1,50.7,20.1,59.3-11.3c3.5-11,2.9-20.7-8.3-27.3C687.9,279.7,652.8,295.3,663.5,327.7z"/>
<path class="st0" d="M95.7,269.6c1.1-5.9,4.8-10.8,12.5-13.7c1.1-0.2,2.2-0.3,3.3-0.5c-4.4-10.6-14.5-4.8-10.4-29.5  c-7.1,11-5,14.6-0.6,25.2c-6.1-3.2-10.9-8.2-14-14.3c-1.2,5.5,4,11.8,9.7,17.5c-7.4-6-14.4-9.4-21.4-1c8.3-2.8,13.1-1.9,19.4,4.7  c-9.9-1.4-10.7,4.9-8.8,12.9C87.4,262.4,90.8,261.4,95.7,269.6z"/>
<path class="st0" d="M96.3,281.4c3.6,31.5,41.1,47.1,56.8,19.9c15.6-29.4-16.7-49.8-44.4-44.8C96.6,261.1,94.5,270.4,96.3,281.4z"/>
<path class="st0" d="M298.8,425.5c6.2-18.3,49.1-10,49.1-10c-20-17.2-34.4-19.4-44.4-16.2c-6-6.2-27.8-30.3-18.1-43.5  c0,0-7.6,4.1-9.3,10.6c0,0,2.3-11.5-4.8-17.5c0,0-6.4,9.5-5.2,20.7c-21.6-15.4-39.1,4.9-39.1,4.9c7.6,5.2,18.1,0.1,18.1,0.1  c-5.8,3.3-7.8,11.7-7.8,11.7c8.9-11.1,31.8-1.4,42.6,4.1c5.3,3.6,12.4,6.8,21.8,9.5c-12.2,5-17.1,17.9-17.1,17.9  c9.1,2.4,17.5-6.3,17.5-6.3C297.8,416.7,298.8,425.5,298.8,425.5z"/>
<path class="st0" d="M188.6,316.1c-8.6-2.3-18.3-6.7-33.1-15.6c-0.3,0.4-0.4,0.8-0.7,1.3c-0.6,1.1-1.3,2.1-2.1,3.1  c37,22,54,21.1,85.4,17.8c-3.5-0.6-7.5-1.1-11.4-1.7l0,0c0,0-61.3-7.6-45.1-42c10.9-23.2,31.8-8.2,32.2-7c0,0,6.3-6.9-4.8-18.3  c0,0,5.5-7.1,10-4.7c0,0-4.6-8.5-13.1-8.5c0,0,2.3-8.3,5.7-11.9c0,0-18.8-1.4-37.5,21.8c0,0-21.5,32,4.3,57.4  C181.5,310.9,184.9,313.7,188.6,316.1z"/>
<path class="st0" d="M262.6,362c2.5,0.6-0.6-26.3-36.2-33.2s-50.7,27.2-50.7,27.2c-9.5,28.3,1.7,43.4,1.7,43.4  c1.2-4.8,7-11.2,7-11.2c4.5,7.2,14.2,6.5,14.2,6.5c-4.5-2.5-1.4-10.9-1.4-10.9c15.5,3.3,18-5.7,18-5.7c-1.3,0.3-25.1-9.2-11.4-30.9  C224.1,314.9,262.6,362,262.6,362z M198.9,341.4c-1.5,1.6-3.3,3.5-5.1,5.5c-1.9,2.1-3.6,4.4-5.2,6.7c-1.6,2.3-2.9,4.7-4,7.3  c-0.5,1.2-0.9,2.4-1.2,3.6c-0.3,1.2-0.3,2.3-0.5,3.4c0,1.1,0.1,2,0.1,2.9c0,0.8,0.2,1.5,0.4,2.2c0.3,1.2,0.5,2,0.5,2s-0.4-0.6-1-1.8  c-0.4-0.7-0.7-1.4-1-2.2c-0.3-1-0.5-2-0.7-3.1c-0.1-1.3-0.1-2.5,0-3.8c0.4-2.9,1.3-5.6,2.7-8.2c0.7-1.4,1.5-2.7,2.3-3.9  c1.7-2.4,3.6-4.7,5.7-6.8c1.8-1.8,3.8-3.5,5.8-5c2-1.5,4.1-2.9,6.3-4.1C204.1,336.2,201.9,338.2,198.9,341.4L198.9,341.4z"/>
<path class="st0" d="M589,375c0,0-17.8-20.1-39.3-5.2c1.3-11.1-4.7-20.5-4.7-20.5c-7,6-4.7,17.5-4.7,17.5  c-1.7-6.5-9.2-10.6-9.2-10.6c9.5,13.1-12.5,36.9-18.8,43.3c-9.7-3-23.7-0.7-43.2,16.3c0,0,41.6-8.3,47.8,10c0,0,1-8.8-3.4-14  c0,0,8.3,8.7,17.3,6.3c0,0-4.6-13.1-16.6-17.9c9.3-2.7,16.4-6,21.6-9.6c10.9-5.5,33.3-14.9,42-4c0,0-1-8.4-6.8-11.7  C571,375.1,581.5,380.3,589,375z"/>
<path class="st0" d="M428.1,291.5v-5.9c-8.4-0.1-14.6-0.7-18.5-1.9c-3.6-0.9-6.6-3.3-8.1-6.7c-1.5-3.3-2.2-8.5-2.2-15.8v-47.1h14.2  c19.8,0,35.7-3,47.7-9.1s20.6-13.7,25.6-22.8c4.9-8.7,7.5-18.5,7.5-28.5c0-10.6-2.8-19.9-8.4-28s-14-14.2-25.2-18.6  c-11.2-4.4-25-6.7-41.3-6.7c-3.4,0-9.5,0.1-18.3,0.3c-8.8,0.2-16.8,0.3-24,0.3c-18.3,0-31.9-0.3-41-0.8v5.4c6,0.3,10.3,1,13,2.1  c2.7,1.2,4.8,3.5,5.6,6.3c1,3.1,1.5,8,1.5,14.8v133.9c0,6.8-0.5,11.7-1.5,14.8c-0.8,2.8-2.9,5.2-5.6,6.3c-2.7,1.1-7.1,1.8-13,2.1  v5.4c23.2-0.5,37.4-0.8,42.6-0.8C389.5,290.8,406,291,428.1,291.5z M399.2,129c0-6.5,0.4-11.4,1.3-14.6c0.8-3.2,2.4-5.4,4.8-6.7  c2.3-1.3,5.9-1.9,10.7-1.9c12,0,20.5,4.1,25.7,12.4c5.2,8.3,7.8,21.2,7.8,38.7c0,16-2.8,28.7-8.3,38s-15.7,14-30.4,14h-11.6  L399.2,129z"/>
<path class="st0" d="M587.2,278.3c4.9-1.5,8.8,6.6,8.8,6.6c-13.2,8.9-8.3,17-8.3,17c0.6-1.1,24.1-11.7,30.2,13.2  c9.1,36.9-51.4,32.1-51.4,32.1c-1.1,0.7,4.5,4.6,13.4,6.3c23.4,5.9,64.6,6.7,86.7-17.3c-0.8-1-1.5-2.1-2.1-3.3  c-16.3,15.9-37.2,19.5-59.7,18c27.2-14.3,45.3-28.3,51.7-60.6c-1.2-0.4-2.4-0.9-3.6-1.5c-3.2,16.3-11.5,29-23.1,39.3  c9.6-18.9,1.3-39.3,1.3-39.3c-13.8-26.5-32.5-28.8-32.5-28.8c2.6,4.2,3.2,12.8,3.2,12.8C593.4,270.8,587.2,278.3,587.2,278.3z   M613.6,281.7c0.8,0.2,1.5,0.5,2.3,0.8c0.9,0.5,1.8,1,2.7,1.6c1,0.8,1.9,1.7,2.7,2.6c0.9,1.1,1.6,2.3,2.3,3.5  c0.7,1.3,1.3,2.7,1.8,4.1c0.5,1.4,0.9,2.9,1.2,4.4c0.6,2.9,0.9,5.9,1,8.9c0,2.6-0.1,5.1-0.4,7.7c-0.3,2.5-0.8,4.9-1.4,7.4  c0,0,0-3-0.2-7.4c-0.1-2.2-0.3-4.8-0.5-7.5c-0.3-2.8-0.7-5.6-1.3-8.4c-0.2-1.4-0.6-2.8-1-4.1c-0.7-2.5-1.8-5-3.2-7.2  c-0.7-1-1.4-1.8-2.1-2.7s-1.5-1.3-2.2-2c-0.6-0.5-1.2-0.9-1.9-1.2c-1.1-0.6-1.8-1-1.8-1S612.3,281.3,613.6,281.7z"/>
</svg>